{"title":"Lies.and.Illusions-AC3-5,1-DVDRip[Eng]2009","uid":5087042,"size":1489023774,"categoryP":"video","categoryS":"movies","magnet":"?xt=urn:btih:9cd79d82f327d9f21dda5170af133813739bb312&amp;dn=Lies.and.Illusions-AC3-5%2C1-DVDRip%5BEng%5D2009&amp;tr=udp%3A%2F%2Ftracker.openbittorrent.com%3A80&amp;tr=udp%3A%2F%2Fopen.demonii.com%3A1337&amp;tr=udp%3A%2F%2Ftracker.coppersurfer.tk%3A6969&amp;tr=udp%3A%2F%2Fexodus.desync.com%3A6969","seeders":1,"leechers":0,"uploader":"FatFreddy31","files":-1,"time":1252798626,"description":" &lt;a href=&quot;http://www.imdb.com/title/tt1202222/&quot; rel=&quot;nofollow&quot; target=&quot;_NEW&quot;&gt;http://www.imdb.com/title/tt1202222/&lt;/a&gt;\n\nUser Rating:4.2/10 - 456 votes\n\nAction,Comedy,Thriller\n\nDirector:Tibor TakÃƒÂ¡cs\n\nCast:Christian Slater/Cuba Gooding Jr./Sarah Ann Schultz, and others.\n\nPlot:\nBest-selling author Wes Wilson's self-help book about honesty has saved millions of relationships. But when his fiance is abducted and declared dead, Wes suddenly finds himself hunted by hired killers, beautiful spies, and a ruthless criminal mastermind with a taste for both style and violence. What does Wes have that an international smuggling ring wants? Why did his late bride-to-be keep a secret room full of weapons? And who can he trust when nobody is what he or she seems to be...\n\nInfo:\n\nGeneral\nComplete name                    : Lies.and.Illusions-AC3-5,1-DVDRip[Eng]2009.avi\nFormat                           : AVI\nFormat/Info                      : Audio Video Interleave\nFile size                        : 1.39 GiB\nDuration                         : 1h 32mn\nOverall bit rate                 : 2 143 Kbps\nWriting application              : VirtualDubMod 1.5.4.1 (build 2178/release)\nWriting library                  : VirtualDubMod build 2178/release\n\nVideo\nFormat                           : MPEG-4 Visual\nFormat profile                   : Simple@L3\nFormat settings, BVOP            : No\nFormat settings, QPel            : No\nFormat settings, GMC             : No warppoints\nFormat settings, Matrix          : Default\nCodec ID                         : XVID\nCodec ID/Hint                    : XviD\nDuration                         : 1h 32mn\nBit rate                         : 1 688 Kbps\nWidth                            : 624 pixels\nHeight                           : 352 pixels\nDisplay aspect ratio             : 16/9\nFrame rate                       : 23.976 fps\nResolution                       : 24 bits\nColorimetry                      : 4:2:0\nScan type                        : Progressive\nBits/(Pixel*Frame)               : 0.320\nStream size                      : 1.09 GiB (79%)\nWriting library                  : XviD 50\n\nAudio\nFormat                           : AC-3\nFormat/Info                      : Audio Coding 3\nCodec ID                         : 2000\nDuration                         : 1h 32mn\nBit rate mode                    : Constant\nBit rate                         : 448 Kbps\nChannel(s)                       : 6 channels\nChannel positions                : Front: L C R, Surround: L R, LFE\nSampling rate                    : 48.0 KHz\nStream size                      : 297 MiB (21%)\nAlignment                        : Split accross interleaves\nInterleave, duration             : 83 ms (2.00 video frames)\nInterleave, preload duration     : 500 ms\nLanguage                         : English\n\nEnjoy...","torrent":{"xt":"urn:btih:9cd79d82f327d9f21dda5170af133813739bb312","amp;dn":"Lies.and.Illusions-AC3-5%2C1-DVDRip%5BEng%5D2009","amp;tr":["udp%3A%2F%2Ftracker.openbittorrent.com%3A80","udp%3A%2F%2Fopen.demonii.com%3A1337","udp%3A%2F%2Ftracker.coppersurfer.tk%3A6969","udp%3A%2F%2Fexodus.desync.com%3A6969"],"infoHash":"9cd79d82f327d9f21dda5170af133813739bb312","infoHashBuffer":{"type":"Buffer","data":[156,215,157,130,243,39,217,242,29,218,81,112,175,19,56,19,115,155,179,18]},"announce":[],"urlList":[]}}